<svg width="26" height="26" viewBox="0 0 26 26" fill="none" xmlns="http://www.w3.org/2000/svg">
<path d="M17.16 13C17.16 13.8228 16.916 14.6271 16.4589 15.3112C16.0018 15.9953 15.3521 16.5285 14.592 16.8433C13.8318 17.1582 12.9954 17.2406 12.1884 17.0801C11.3815 16.9196 10.6402 16.5233 10.0584 15.9416C9.47665 15.3598 9.08045 14.6185 8.91993 13.8116C8.75942 13.0046 8.8418 12.1682 9.15666 11.408C9.47152 10.6479 10.0047 9.99819 10.6888 9.54109C11.3729 9.08398 12.1772 8.84 13 8.84C14.1022 8.84343 15.1584 9.28281 15.9378 10.0622C16.7172 10.8416 17.1566 11.8978 17.16 13ZM26 7.28V18.72C26 20.6508 25.233 22.5025 23.8677 23.8677C22.5025 25.233 20.6508 26 18.72 26H7.28C5.34922 26 3.49753 25.233 2.13226 23.8677C0.766998 22.5025 0 20.6508 0 18.72V7.28C0 5.34922 0.766998 3.49753 2.13226 2.13226C3.49753 0.766998 5.34922 0 7.28 0H18.72C20.6508 0 22.5025 0.766998 23.8677 2.13226C25.233 3.49753 26 5.34922 26 7.28ZM19.24 13C19.24 11.7658 18.874 10.5594 18.1884 9.53324C17.5027 8.50708 16.5282 7.70728 15.3879 7.23499C14.2477 6.7627 12.9931 6.63913 11.7826 6.8799C10.5722 7.12067 9.46033 7.71497 8.58765 8.58765C7.71497 9.46033 7.12067 10.5722 6.8799 11.7826C6.63913 12.9931 6.7627 14.2477 7.23499 15.3879C7.70728 16.5282 8.50708 17.5027 9.53324 18.1884C10.5594 18.874 11.7658 19.24 13 19.24C14.655 19.24 16.2421 18.5826 17.4123 17.4123C18.5826 16.2421 19.24 14.655 19.24 13ZM21.32 6.24C21.32 5.93146 21.2285 5.62985 21.0571 5.37331C20.8857 5.11677 20.642 4.91682 20.357 4.79875C20.0719 4.68068 19.7583 4.64978 19.4557 4.70997C19.153 4.77017 18.8751 4.91874 18.6569 5.13691C18.4387 5.35508 18.2902 5.63305 18.23 5.93566C18.1698 6.23827 18.2007 6.55193 18.3187 6.83699C18.4368 7.12204 18.6368 7.36568 18.8933 7.53709C19.1499 7.70851 19.4515 7.8 19.76 7.8C20.1737 7.8 20.5705 7.63564 20.8631 7.34309C21.1556 7.05053 21.32 6.65374 21.32 6.24Z" fill="#25254C"/>
</svg>
