<svg width="20" height="20" viewBox="0 0 20 20" fill="none" xmlns="http://www.w3.org/2000/svg">
<path fill-rule="evenodd" clip-rule="evenodd" d="M8.06452 2.97114C5.25152 2.97114 2.97114 5.25152 2.97114 8.06452C2.97114 10.8775 5.25152 13.1579 8.06452 13.1579C10.8775 13.1579 13.1579 10.8775 13.1579 8.06452C13.1579 5.25152 10.8775 2.97114 8.06452 2.97114ZM0 8.06452C0 3.61061 3.61061 0 8.06452 0C12.5184 0 16.129 3.61061 16.129 8.06452C16.129 12.5184 12.5184 16.129 8.06452 16.129C3.61061 16.129 0 12.5184 0 8.06452Z" fill="#25254C"/>
<path fill-rule="evenodd" clip-rule="evenodd" d="M12.0428 12.0428C12.616 11.4696 13.5453 11.4696 14.1185 12.0428L19.5701 17.4944C20.1433 18.0676 20.1433 18.9969 19.5701 19.5701C18.9969 20.1433 18.0676 20.1433 17.4944 19.5701L12.0428 14.1185C11.4696 13.5453 11.4696 12.616 12.0428 12.0428Z" fill="#25254C"/>
</svg>
