<svg width="28" height="28" viewBox="0 0 28 28" fill="none" xmlns="http://www.w3.org/2000/svg">
<path d="M28 14C28 17.713 26.525 21.274 23.8995 23.8995C21.274 26.525 17.713 28 14 28C10.287 28 6.72601 26.525 4.1005 23.8995C1.475 21.274 0 17.713 0 14C0 10.287 1.475 6.72601 4.1005 4.1005C6.72601 1.475 10.287 0 14 0C17.713 0 21.274 1.475 23.8995 4.1005C26.525 6.72601 28 10.287 28 14ZM14.5022 10.3355C13.1407 10.9025 10.4177 12.075 6.33675 13.853C5.67525 14.1155 5.327 14.3745 5.2955 14.6265C5.243 15.0517 5.77675 15.2197 6.503 15.449L6.80925 15.5452C7.52325 15.778 8.48575 16.0492 8.9845 16.0597C9.4395 16.0702 9.94525 15.8847 10.5035 15.4998C14.3167 12.9255 16.2855 11.6252 16.408 11.5972C16.4955 11.5762 16.618 11.5518 16.6985 11.6252C16.7808 11.697 16.772 11.8352 16.7633 11.872C16.7108 12.0977 14.616 14.0437 13.5327 15.0517C13.195 15.3667 12.9552 15.589 12.9062 15.6398C12.7984 15.75 12.6887 15.8585 12.5772 15.9652C11.9122 16.6057 11.4153 17.0852 12.6035 17.8692C13.1758 18.2472 13.6342 18.557 14.091 18.8685C14.588 19.208 15.085 19.5457 15.729 19.9692C15.8917 20.0742 16.0492 20.188 16.2015 20.2965C16.7808 20.7095 17.304 21.0805 17.9462 21.021C18.3207 20.986 18.7075 20.636 18.9035 19.586C19.3672 17.1062 20.279 11.7355 20.489 9.52175C20.5018 9.33772 20.4942 9.15284 20.4662 8.9705C20.4498 8.82336 20.3786 8.6878 20.2667 8.59075C20.1075 8.48083 19.9177 8.42389 19.7242 8.428C19.1992 8.43675 18.389 8.7185 14.5022 10.3355Z" fill="#25254C"/>
</svg>
