<svg width="24" height="26" viewBox="0 0 24 26" fill="none" xmlns="http://www.w3.org/2000/svg">
<path d="M23.996 10.5191C23.7668 10.5398 23.5368 10.5506 23.3065 10.5516C20.7809 10.5519 18.4254 9.37176 17.042 7.41297V18.1007C17.042 22.4633 13.227 26 8.52098 26C3.815 26 0 22.4633 0 18.1007C0 13.738 3.815 10.2014 8.52098 10.2014C8.69889 10.2014 8.87276 10.2162 9.04763 10.2264V14.1191C8.87276 14.0996 8.70084 14.07 8.52098 14.07C6.11914 14.07 4.17204 15.875 4.17204 18.1016C4.17204 20.3282 6.11914 22.1332 8.52098 22.1332C10.9233 22.1332 13.0448 20.3787 13.0448 18.1517L13.0867 0H17.1039C17.4827 3.33958 20.3874 5.9481 24 6.19288V10.5191" fill="#25254C"/>
</svg>
