<svg width="33" height="33" viewBox="0 0 33 33" fill="none" xmlns="http://www.w3.org/2000/svg">
<path d="M30.3349 9.54229C30.1705 8.9301 29.8482 8.37183 29.4003 7.92334C28.9524 7.47485 28.3945 7.15186 27.7825 6.98672C25.5299 6.38086 16.5 6.38086 16.5 6.38086C16.5 6.38086 7.47012 6.38086 5.21748 6.9835C4.60524 7.14811 4.04709 7.47091 3.59908 7.91948C3.15107 8.36806 2.82897 8.92662 2.66514 9.53906C2.0625 11.7949 2.0625 16.5 2.0625 16.5C2.0625 16.5 2.0625 21.2051 2.66514 23.4577C2.99707 24.7017 3.97676 25.6813 5.21748 26.0133C7.47012 26.6191 16.5 26.6191 16.5 26.6191C16.5 26.6191 25.5299 26.6191 27.7825 26.0133C29.0265 25.6813 30.0029 24.7017 30.3349 23.4577C30.9375 21.2051 30.9375 16.5 30.9375 16.5C30.9375 16.5 30.9375 11.7949 30.3349 9.54229ZM13.6318 20.8184V12.1816L21.1084 16.4678L13.6318 20.8184Z" fill="#25254C"/>
</svg>
